<svg xmlns="http://www.w3.org/2000/svg" viewBox="0 0 35 35">
    <symbol id="icon-menu-cutter" viewBox="0 0 35 35">
        <path d="M29.486 3.241a.982.982 0 0 0-.699.293L17.502 14.819 6.219 3.534c-.195-.195-.446-.289-.701-.289s-.504.094-.699.289a.982.982 0 0 0 0 1.4l11.283 11.285-4.85 4.85-.336-.207a5.833 5.833 0 0 0-3.074-.865 5.832 5.832 0 0 0-4.158 1.721c-1.115 1.112-1.726 2.585-1.725 4.162s.611 3.045 1.725 4.156c1.113 1.113 2.584 1.723 4.158 1.723s3.044-.61 4.158-1.723a5.819 5.819 0 0 0 1.723-4.156 5.83 5.83 0 0 0-.865-3.074l-.207-.336 4.85-4.852 4.852 4.852-.207.336a5.837 5.837 0 0 0-.867 3.074 5.82 5.82 0 0 0 1.725 4.156c1.113 1.113 2.584 1.722 4.158 1.723s3.045-.61 4.158-1.723c1.113-1.112 1.723-2.581 1.723-4.156s-.608-3.048-1.721-4.16a5.831 5.831 0 0 0-4.158-1.723 5.83 5.83 0 0 0-3.074.865l-.336.207-4.85-4.85L30.187 4.934a.982.982 0 0 0 0-1.4.983.983 0 0 0-.699-.293zm-2.324 18.735c1.039 0 2.025.41 2.76 1.145.734.733 1.143 1.719 1.143 2.758s-.409 2.023-1.143 2.756c-.735.735-1.722 1.143-2.76 1.143s-2.024-.408-2.76-1.143c-.734-.733-1.143-1.718-1.143-2.756s.409-2.024 1.143-2.758l.002-.002a3.891 3.891 0 0 1 2.758-1.143zm-19.318.002c1.038 0 2.024.409 2.758 1.143.735.735 1.143 1.721 1.143 2.76s-.409 2.021-1.143 2.754c-.735.735-1.721 1.145-2.76 1.145s-2.024-.409-2.76-1.145c-.734-.733-1.143-1.718-1.143-2.756s.409-2.023 1.145-2.758a3.885 3.885 0 0 1 2.76-1.143z"></path>
    </symbol>
    <use href="#icon-menu-cutter" />
</svg>
