<svg xmlns="http://www.w3.org/2000/svg" viewBox="0 0 509 509">
    <symbol id="icon-menu-help" viewBox="0 0 509 509">
        <path d="M434.466 74.582C388.392 28.512 324.756 0 254.506 0s-133.89 28.508-179.96 74.582C24.484 124.644-4.786 195.492.644 272.872c9.418 134.32 125.91 236.22 260.57 236.22h168.43c43.867 0 79.418-35.551 79.418-79.418v-175.13c0-70.254-28.512-133.89-74.582-179.96l-.014-.002zm-161.81 339.9c-4.836 5.008-11.285 7.55-18.156 7.55-3.394 0-6.703-.507-9.758-1.866-3.308-1.36-6.023-3.223-8.398-5.684-4.836-4.75-7.55-11.285-7.55-18.156 0-6.703 2.714-13.406 7.55-18.156 9.418-9.586 26.98-9.586 36.398 0 4.836 4.75 7.55 11.453 7.55 18.156-.081 6.875-2.8 13.406-7.636 18.156zm12.473-124.64c-2.887.848-4.922 4.156-4.922 7.723v13.238c0 14.168-11.539 25.71-25.71 25.71-14.169 0-25.712-11.538-25.712-25.71v-13.238c0-26.047 16.97-49.383 41.238-56.934C292 233.84 311.937 210 305.574 179.2c-4.074-19.602-19.938-35.465-39.453-39.453-16.207-3.309-32.074.34-44.46 10.438-12.306 10.012-19.263 24.777-19.263 40.559 0 14.168-11.539 25.71-25.71 25.71-14.169 0-25.712-11.538-25.712-25.71 0-31.395 13.914-60.668 38.266-80.438 24.352-19.77 56.168-27.406 87.395-20.957 39.371 8.144 71.273 40.047 79.418 79.418 10.953 53.109-19.508 105.21-70.926 121.07v.004z"></path>
    </symbol>
    <use href="#icon-menu-help" />
</svg>
