<svg xmlns="http://www.w3.org/2000/svg" viewBox="0 0 477 470">
    <symbol id="icon-menu-joiner" viewBox="0 0 477 470">
        <path d="M13.999 152.324c6.16 0 11.199-5.04 11.199-11.199V61.602c0-21.84 17.359-39.199 39.199-39.199h119.28c6.16 0 11.199-5.04 11.199-11.199S189.836.005 183.676.005H64.397A61.425 61.425 0 0 0 2.796 61.607v78.961c0 6.715 5.043 11.758 11.203 11.758v-.002zM183.679 448.004H64.399c-21.84 0-39.2-17.359-39.2-39.199v-79.523c0-6.16-5.038-11.199-11.198-11.199s-11.2 5.04-11.2 11.199l-.003 79.523A61.425 61.425 0 0 0 64.4 470.407h119.28c6.16 0 11.199-5.04 11.199-11.199M461.999 318.084c-6.16 0-11.2 5.04-11.2 11.199l-.003 79.523c0 21.84-17.359 39.199-39.199 39.199h-119.28c-6.16 0-11.199 5.04-11.199 11.199s5.04 11.199 11.199 11.199h119.28a61.425 61.425 0 0 0 61.602-61.602l-.004-79.52c0-6.156-5.039-11.199-11.199-11.199l.003.002zM292.319 22.403h119.28c21.84 0 39.199 17.359 39.199 39.199v78.961c0 6.16 5.039 11.199 11.199 11.199s11.199-5.04 11.199-11.199V61.602A61.425 61.425 0 0 0 411.594 0l-119.28.004c-6.16 0-11.2 5.039-11.2 11.199-.003 6.16 5.04 11.199 11.2 11.199l.005.001zM212.239 238.564c0-.559 0-.559.558-1.121 0-.559 0-.559.56-1.121.558-1.68.558-2.801 0-4.48 0-.56 0-.56-.56-1.122 0-.558 0-.558-.558-1.12 0-.56-.559-.56-.559-1.122 0 0 0-.559-.558-.559l-1.68-1.68-77.281-77.272c-4.48-4.48-11.199-4.48-15.68 0s-4.48 11.199 0 15.68l58.238 58.238H11.199C5.039 222.885 0 227.924 0 234.084s5.04 11.199 11.199 11.199h163.52l-58.238 58.8c-4.48 4.481-4.48 11.2 0 15.68 2.238 2.239 5.04 3.36 7.84 3.36s5.601-1.121 7.84-3.36l79.52-79.52c0-.558 0-1.116.558-1.679zM465.919 223.444h-157.92l58.238-58.238c4.48-4.48 4.48-11.199 0-15.68-4.48-4.48-11.2-4.48-15.68 0l-79.52 79.52c0 .559-.559.559-.559 1.121 0 .559 0 .559-.558 1.121 0 .559 0 .559-.559 1.121-.558 1.68-.558 2.801 0 4.48 0 .56 0 .56.559 1.122 0 .558 0 .558.558 1.121 0 .559.559.559.559 1.121 0 0 0 .559.558.559.56.558 1.122 1.12 1.68 1.68l77.281 77.272c2.238 2.239 5.04 3.36 7.84 3.36s5.602-1.121 7.84-3.36c4.48-4.48 4.48-11.199 0-15.68l-58.238-58.238h157.92c6.16 0 11.199-5.039 11.199-11.199-.004-6.16-5.043-11.203-11.203-11.203h.005z"></path>
    </symbol>
    <use href="#icon-menu-joiner" />
</svg>
