<svg xmlns="http://www.w3.org/2000/svg" viewBox="0 0 385 525">
    <symbol id="icon-menu-recorder" viewBox="0 0 385 525">
        <path d="M192.498 332.5a105 105 0 0 1-105-105V105a105.003 105.003 0 0 1 52.5-90.935 105.012 105.012 0 0 1 105 0 105.003 105.003 0 0 1 52.5 90.934v122.5a104.998 104.998 0 0 1-105 105zm0-297.5a69.986 69.986 0 0 0-49.496 20.504A69.986 69.986 0 0 0 122.498 105v122.5c0 25.008 13.344 48.117 35 60.62s48.344 12.505 70 0 35-35.613 35-60.62V105a69.986 69.986 0 0 0-20.504-49.496A69.986 69.986 0 0 0 192.498 35z"></path>
        <path d="M209.998 437.5h-35a174.978 174.978 0 0 1-123.74-51.258A174.985 174.985 0 0 1 0 262.502a17.498 17.498 0 0 1 26.25-15.156A17.499 17.499 0 0 1 35 262.502c0 37.129 14.75 72.738 41.004 98.995A140.013 140.013 0 0 0 175 402.502h35c37.129 0 72.738-14.75 98.996-41.005A140.013 140.013 0 0 0 350 262.502a17.498 17.498 0 0 1 26.25-15.156 17.499 17.499 0 0 1 8.75 15.156 174.999 174.999 0 0 1-175 175l-.002-.002z"></path>
        <path d="M244.998 525h-105a17.498 17.498 0 0 1-15.156-26.25 17.499 17.499 0 0 1 15.156-8.75h35v-52.5a17.498 17.498 0 0 1 26.25-15.156 17.499 17.499 0 0 1 8.75 15.156V490h35a17.498 17.498 0 0 1 15.156 26.25 17.499 17.499 0 0 1-15.156 8.75z"></path>
    </symbol>
    <use href="#icon-menu-recorder" />
</svg>
