<svg xmlns="http://www.w3.org/2000/svg" viewBox="0 0 495 281">
    <symbol id="icon-menu-splitter" viewBox="0 0 495 281">
        <path d="m486.87 209.81-124.71-31.422c-.915-.23-1.821-.3-2.723-.3l-14.207-24.59 137.12 22.233c.605.098 1.214.14 1.804.14 5.399 0 10.156-3.91 11.047-9.405.989-6.11-3.16-11.863-9.265-12.852l-153.28-24.852c-.602-.098-1.192-.106-1.782-.106l-14.98-25.926 167.11 17.086c.383.04.77.059 1.149.059 5.676 0 10.543-4.297 11.129-10.06.629-6.155-3.844-11.651-10.004-12.28l-183.2-18.742-40.95-70.867A15.903 15.903 0 0 0 247.399 0h-.01a15.889 15.889 0 0 0-13.73 7.945L189.45 84.746 8.33 132.77c-5.976 1.586-9.539 7.715-7.953 13.695 1.328 5.02 5.863 8.336 10.816 8.336.953 0 1.918-.12 2.879-.379l159.64-42.328-83.758 145.52a15.91 15.91 0 0 0 .016 15.848 15.902 15.902 0 0 0 13.727 7.918h287.97c5.648 0 10.91-3.039 13.73-7.933a15.904 15.904 0 0 0-.004-15.855l-30.578-52.918 106.61 26.859c.918.23 1.836.34 2.746.34 5.008 0 9.57-3.387 10.852-8.465 1.504-5.992-2.133-12.086-8.133-13.594l-.02-.003zm-371.88 49.168 132.4-230.02 132.91 230.02H114.99z"></path>
    </symbol>
    <use href="#icon-menu-splitter" />
</svg>
